<svg width="29" height="30" viewBox="0 0 29 30" fill="none" xmlns="http://www.w3.org/2000/svg">
<path d="M17.922 18.345C16.9527 19.1534 15.7451 19.5943 14.5 19.5943C13.2549 19.5943 12.0473 19.1534 11.078 18.345C10.7819 18.0904 10.4001 17.9679 10.0167 18.0045C9.6333 18.041 9.27963 18.2337 9.03351 18.54C8.78738 18.8463 8.66897 19.2412 8.70432 19.6379C8.73967 20.0345 8.92589 20.4004 9.222 20.655C10.7029 21.9339 12.5709 22.6344 14.5 22.6344C16.4291 22.6344 18.2971 21.9339 19.778 20.655C20.0741 20.4004 20.2603 20.0345 20.2957 19.6379C20.331 19.2412 20.2126 18.8463 19.9665 18.54C19.8446 18.3883 19.6951 18.263 19.5264 18.1711C19.3577 18.0792 19.1731 18.0226 18.9833 18.0045C18.5999 17.9679 18.2181 18.0904 17.922 18.345V18.345ZM10.15 13.5C10.4368 13.5 10.7171 13.412 10.9556 13.2472C11.194 13.0824 11.3799 12.8481 11.4896 12.574C11.5994 12.2999 11.6281 11.9983 11.5721 11.7074C11.5162 11.4164 11.3781 11.1491 11.1753 10.9393C10.9725 10.7296 10.7142 10.5867 10.4329 10.5288C10.1516 10.4709 9.86007 10.5006 9.59511 10.6142C9.33016 10.7277 9.1037 10.92 8.94437 11.1666C8.78505 11.4133 8.7 11.7033 8.7 12C8.7 12.3978 8.85277 12.7794 9.1247 13.0607C9.39663 13.342 9.76544 13.5 10.15 13.5ZM18.85 10.5C18.5632 10.5 18.2829 10.588 18.0444 10.7528C17.806 10.9176 17.6201 11.1519 17.5104 11.426C17.4006 11.7001 17.3719 12.0017 17.4279 12.2926C17.4838 12.5836 17.6219 12.8509 17.8247 13.0607C18.0275 13.2704 18.2858 13.4133 18.5671 13.4712C18.8484 13.5291 19.1399 13.4993 19.4049 13.3858C19.6698 13.2723 19.8963 13.08 20.0556 12.8334C20.215 12.5867 20.3 12.2967 20.3 12C20.3 11.6022 20.1472 11.2206 19.8753 10.9393C19.6034 10.658 19.2346 10.5 18.85 10.5ZM14.5 0C11.6322 0 8.82875 0.879734 6.44424 2.52796C4.05972 4.17618 2.20122 6.51885 1.10375 9.25975C0.00628262 12.0006 -0.280866 15.0166 0.27862 17.9263C0.838106 20.8361 2.2191 23.5088 4.24696 25.6066C6.27482 27.7044 8.85847 29.133 11.6712 29.7118C14.4839 30.2905 17.3994 29.9935 20.0489 28.8582C22.6984 27.7229 24.963 25.8003 26.5563 23.3335C28.1496 20.8668 29 17.9667 29 15C29 13.0302 28.6249 11.0796 27.8963 9.25975C27.1676 7.43986 26.0995 5.78628 24.753 4.3934C23.4066 3.00052 21.8081 1.89563 20.0489 1.14181C18.2897 0.387986 16.4042 0 14.5 0V0ZM14.5 27C12.2057 27 9.963 26.2962 8.05539 24.9776C6.14778 23.6591 4.66098 21.7849 3.783 19.5922C2.90503 17.3995 2.67531 14.9867 3.1229 12.6589C3.57049 10.3311 4.67528 8.19295 6.29757 6.51472C7.91986 4.83649 9.98678 3.6936 12.237 3.23058C14.4871 2.76755 16.8195 3.00519 18.9391 3.91344C21.0588 4.8217 22.8704 6.35977 24.145 8.33315C25.4197 10.3065 26.1 12.6266 26.1 15C26.1 18.1826 24.8779 21.2348 22.7024 23.4853C20.527 25.7357 17.5765 27 14.5 27V27Z" fill="#2E3030"/>
</svg>
