<?xml version="1.0" encoding="UTF-8"?>
<svg width="200" height="40" viewBox="0 0 200 40" fill="none" xmlns="https://www.w3.org/2000/svg">
  <path d="M20 0C8.954 0 0 8.954 0 20s8.954 20 20 20 20-8.954 20-20S31.046 0 20 0zm0 36c-8.837 0-16-7.163-16-16S11.163 4 20 4s16 7.163 16 16-7.163 16-16 16z" fill="currentColor"/>
  <path d="M60 12h-8v24h8c6.627 0 12-5.373 12-12s-5.373-12-12-12zm0 20h-4V16h4c4.418 0 8 3.582 8 8s-3.582 8-8 8z" fill="currentColor"/>
  <text x="90" y="30" font-family="Jost, sans-serif" font-size="24" fill="currentColor">Novaesens</text>
</svg> 